<svg width="52" height="54" viewBox="0 0 52 54" fill="none" xmlns="http://www.w3.org/2000/svg">
<path d="M51.0536 21.6383C51.0536 19.715 45.6202 18.0429 37.6249 17.1893L27.2616 0.993078C26.9716 0.391819 26.2863 0 25.5273 0C24.7674 0 24.082 0.391819 23.7919 0.993078L13.4287 17.1892C5.43441 18.0428 0 19.7149 0 21.6382C0 23.3784 4.44319 24.9117 11.2066 25.8206C11.1649 27.0114 11.1669 28.1468 11.1669 29.1537C11.1669 32.3403 8.22658 32.3343 6.34631 31.5609C6.63129 33.5226 9.48912 36.2184 12.0607 36.2184C13.8647 36.2184 15.3239 35.6963 16.3281 34.7611C16.7264 35.4366 17.2172 36.0201 17.7099 36.5132C18.1658 36.9715 18.6248 37.3582 19.0191 37.6836C19.2654 37.8846 19.4819 38.0592 19.6577 38.2074C19.6577 39.0957 19.6577 38.52 19.6577 39.0728L19.6538 39.1018C19.6408 39.1785 19.5544 39.3811 19.3915 39.6051C19.151 39.9467 18.7597 40.3479 18.3425 40.6708C17.9302 40.997 17.4734 41.2424 17.2111 41.3174C16.6727 41.4809 15.895 41.6512 15.0437 41.8847C13.7674 42.2383 12.2902 42.7425 11.0883 43.7561C10.4883 44.2612 9.97179 44.8966 9.61619 45.6675C9.25951 46.4384 9.06484 47.3387 9.06484 48.3772C9.06484 48.6633 9.07984 48.9615 9.10958 49.2707V49.2699C9.13739 49.5305 9.25056 49.7324 9.37074 49.8882C9.60422 50.1778 9.87639 50.3627 10.1983 50.551C10.7634 50.8704 11.5044 51.1643 12.4451 51.4539C15.2542 52.3125 19.8404 53.0833 25.5261 53.0859C30.145 53.0851 34.0448 52.5723 36.8459 51.9232C38.2485 51.597 39.3729 51.2401 40.2094 50.8713C40.6294 50.6848 40.9771 50.5 41.2722 50.2785C41.4211 50.166 41.5592 50.0442 41.6813 49.8883C41.8015 49.7324 41.9158 49.5305 41.9426 49.27C41.9724 48.9625 41.9872 48.6651 41.9872 48.3799C41.9893 46.9957 41.6366 45.8559 41.0258 44.9488C40.5699 44.2682 39.9777 43.7273 39.3341 43.3039C38.3696 42.6667 37.3027 42.2827 36.3273 41.9956C35.3528 41.7111 34.4529 41.5151 33.8599 41.3227C33.6194 41.2476 33.3166 41.0986 33.0156 40.9019C32.5627 40.608 32.1166 40.2042 31.8138 39.8312C31.6617 39.6446 31.5466 39.4658 31.4769 39.3235C31.4064 39.1838 31.3915 39.0815 31.3935 39.0731C31.3935 38.5203 31.3935 39.0961 31.3935 38.2068C31.5702 38.0594 31.7879 37.8848 32.0321 37.6838C32.6252 37.1966 33.3621 36.5696 34.0158 35.774C34.2701 35.4649 34.5045 35.1198 34.719 34.7562C35.7242 35.694 37.1854 36.2186 38.9902 36.2186C41.563 36.2186 44.4198 33.5227 44.7069 31.5611C42.8245 32.3345 39.8853 32.3404 39.8853 29.1539C39.8853 28.1471 39.8874 27.0116 39.8456 25.8208C46.6096 24.9126 51.0536 23.3785 51.0536 21.6383ZM22.5731 18.2353C22.5741 17.674 23.1026 17.22 23.7582 17.2192H27.2955C27.9511 17.22 28.4794 17.6741 28.4805 18.2353V20.3674C28.4796 20.9288 27.95 21.3827 27.2955 21.3836H23.7582C23.1035 21.3828 22.5742 20.9288 22.5731 20.3674V18.2353ZM24.2409 42.7424C24.0373 42.9118 23.795 43.072 23.5357 43.1853C23.2764 43.2977 23.0022 43.3658 22.7032 43.3658C22.3626 43.3642 21.9692 43.2816 21.4824 43.015C21.0534 42.7773 20.5557 42.3778 20.0153 41.7816C20.3461 41.5005 20.653 41.1999 20.9163 40.8846C20.9272 40.871 20.9361 40.8565 20.948 40.8421L24.4991 42.5047C24.4228 42.5823 24.3373 42.6632 24.2409 42.7424ZM29.5702 43.015C29.0824 43.2816 28.6902 43.3642 28.3493 43.3658C28.0404 43.3658 27.7593 43.2943 27.4911 43.1742C27.1196 43.009 26.7927 42.7432 26.5533 42.5039L30.0935 40.8488C30.3616 41.1802 30.6766 41.4971 31.0272 41.7925C30.491 42.383 29.9963 42.7791 29.5702 43.015ZM31.7505 35.3462C31.367 35.7322 30.9607 36.0755 30.5844 36.3845C30.2069 36.6955 29.8611 36.9638 29.5671 37.2423L29.299 37.4987V37.8428C29.299 38.9211 29.299 38.4442 29.299 39.0729C29.3019 39.3302 29.3605 39.5636 29.447 39.7859L25.5263 41.6197L21.6027 39.7849C21.6911 39.5643 21.7507 39.3326 21.7536 39.0728C21.7536 38.4442 21.7536 38.9211 21.7536 37.8427V37.4986L21.4844 37.2422C21.1914 36.9637 20.8468 36.6954 20.4693 36.3844C19.9042 35.922 19.2734 35.3785 18.7489 34.7379C18.2334 34.1101 17.8261 33.3998 17.6463 32.576C17.7933 32.0599 17.8708 31.4968 17.8708 30.8912C17.8708 29.3213 17.8708 27.7106 17.8708 26.4584C20.2876 26.6083 22.8593 26.69 25.5274 26.69C28.1945 26.69 30.7652 26.6082 33.182 26.4584C33.182 27.7105 33.182 29.3213 33.182 30.8912C33.182 31.4976 33.2595 32.0616 33.4064 32.5786C33.1679 33.6784 32.5094 34.5848 31.7505 35.3462Z" fill="#E4E4E4"/>
</svg>
