<svg width="605" height="475" viewBox="0 0 605 475" fill="none" xmlns="http://www.w3.org/2000/svg">
<g clip-path="url(#clip0_30_393)">
<path d="M311.972 392.535L329.573 387.349L324.437 405L329.573 422.601L311.972 417.465L294.321 422.601L299.506 405L294.321 387.349L311.972 392.535Z" fill="#222222" stroke="white" stroke-miterlimit="10"/>
</g>
<g clip-path="url(#clip1_30_393)">
<path d="M125.92 305.509L157.396 322.659L125.92 339.947L108.702 371.354L91.4829 339.947L60.0069 322.659L91.4829 305.509L108.702 273.964L125.92 305.509Z" fill="#222222" stroke="white" stroke-miterlimit="10"/>
</g>
<path d="M545.323 386.007C543.423 389.451 539.885 391.942 534.79 393.487C529.692 395.033 523.08 395.617 515.119 395.273C499.198 394.587 477.996 390.198 452.982 382.542C402.962 367.232 337.8 338.89 269.36 301.139C200.921 263.388 142.188 223.391 102.555 189.249C82.7356 172.175 67.7135 156.583 58.6398 143.483C54.1025 136.933 51.0691 131.029 49.6572 125.892C48.2461 120.758 48.4657 116.436 50.3653 112.992C52.2649 109.549 55.8032 107.057 60.8985 105.512C65.9963 103.967 72.6084 103.383 80.5697 103.726C96.4902 104.413 117.692 108.802 142.706 116.458C192.727 131.767 257.889 160.11 326.328 197.86C394.767 235.611 453.5 275.608 493.133 309.75C512.953 326.824 527.975 342.416 537.048 355.516C541.586 362.067 544.619 367.971 546.031 373.107C547.442 378.241 547.222 382.563 545.323 386.007Z" stroke="#E4E4E4"/>
<path d="M525.094 422.681C523.195 426.125 519.656 428.616 514.561 430.161C509.463 431.707 502.851 432.291 494.89 431.948C478.969 431.261 457.768 426.872 432.754 419.216C382.733 403.906 317.571 375.564 249.132 337.813C180.692 300.063 121.959 260.066 82.3265 225.923C62.507 208.85 47.485 193.258 38.4113 180.158C33.8739 173.607 30.8406 167.703 29.4287 162.566C28.0176 157.432 28.2372 153.111 30.1368 149.667C32.0364 146.223 35.5747 143.732 40.67 142.187C45.7678 140.641 52.3799 140.057 60.3411 140.4C76.2617 141.087 97.4634 145.476 122.478 153.132C172.498 168.442 237.66 196.784 306.099 234.535C374.539 272.285 433.272 312.283 472.905 346.425C492.724 363.499 507.746 379.091 516.82 392.19C521.357 398.741 524.391 404.645 525.802 409.782C527.214 414.916 526.994 419.237 525.094 422.681Z" stroke="#E4E4E4"/>
<path d="M575.837 354.333C573.937 357.777 570.399 360.268 565.304 361.813C560.206 363.359 553.594 363.943 545.633 363.6C529.712 362.913 508.51 358.524 483.496 350.868C433.476 335.558 368.314 307.216 299.874 269.465C231.435 231.715 172.702 191.717 133.069 157.575C113.25 140.501 98.2276 124.909 89.154 111.81C84.6166 105.259 81.5833 99.3547 80.1714 94.2182C78.7602 89.0842 78.9799 84.7625 80.8795 81.3186C82.7791 77.8748 86.3174 75.3836 91.4127 73.8385C96.5105 72.2927 103.123 71.7089 111.084 72.0523C127.004 72.7391 148.206 77.1278 173.22 84.7839C223.241 100.094 288.403 128.436 356.842 166.187C425.281 203.937 484.015 243.934 523.647 278.077C543.467 295.15 558.489 310.742 567.563 323.842C572.1 330.393 575.133 336.297 576.545 341.434C577.956 346.568 577.737 350.889 575.837 354.333Z" stroke="#E4E4E4"/>
<circle cx="132.473" cy="64.5" r="15.5" fill="#222222"/>
<circle cx="421.973" cy="395" r="10" fill="#B9FF66"/>
<path d="M548.215 283.5C548.215 296.479 537.694 307 524.715 307C511.736 307 501.215 296.479 501.215 283.5C501.215 270.521 511.736 260 524.715 260C537.694 260 548.215 270.521 548.215 283.5Z" fill="#222222"/>
<g clip-path="url(#clip2_30_393)">
<path d="M331.26 290.876C331.26 290.876 344.517 257.089 340.855 223.727C340.855 223.728 313.653 259.645 331.26 290.876ZM170.844 208.554C170.844 208.554 161.042 271.283 163.076 272.459C163.076 272.459 195.903 222.205 170.844 208.554Z" fill="#595BD4"/>
<path d="M171.483 216.227L172.373 215.695C172.232 216.475 169.934 219.091 167.834 220.21C166.943 220.693 165.915 221.002 164.811 220.956C164.338 220.941 163.869 220.862 163.418 220.722C163.033 220.335 162.564 219.429 162.123 218.343C162.116 218.333 162.116 218.318 162.109 218.31C162.003 218.036 161.899 217.76 161.797 217.484C161.52 216.736 161.28 215.976 161.078 215.206C161.053 215.127 161.04 215.048 161.014 214.978C160.742 213.891 160.598 212.952 160.693 212.464C160.721 212.343 160.781 212.232 160.868 212.142C161.019 211.959 161.274 211.794 161.592 211.636C162.061 211.416 162.683 211.233 163.342 211.076L163.351 211.074C163.811 210.964 164.289 210.869 164.759 210.797C164.795 210.788 164.833 210.78 164.87 210.773C165.268 210.71 165.65 210.655 166.001 210.605C166.192 210.583 166.367 210.566 166.534 210.542C167.123 210.478 167.545 210.446 167.625 210.446C167.975 210.455 171.693 214.989 171.483 216.227Z" fill="#EBB67F"/>
<path d="M168.629 191.388C168.611 191.301 168.611 191.267 168.611 191.267C168.099 192.544 162.162 198.508 161.792 198.875L161.774 198.891L158.205 190.619L159.053 199.574V199.591H159.035C158.54 199.47 150.025 197.423 149.319 197.213H149.3C148.428 195.966 147.843 194.546 147.587 193.051C147.318 191.482 147.409 189.874 147.853 188.345C148.949 184.62 152.109 181.63 156.225 180.929C160.519 180.194 164.653 182.136 166.895 185.529C167.693 186.722 168.23 188.069 168.469 189.481C168.575 190.13 168.629 190.759 168.629 191.388Z" fill="#FE9526"/>
<path d="M184.47 229.139L181.675 226.671L178.526 223.907L171.031 217.305C171.031 217.305 167.296 216.716 166.529 212.133C166.48 211.822 166.44 211.51 166.411 211.172C166.357 211.274 166.293 211.37 166.22 211.46C165.921 211.861 165.51 212.167 165.039 212.34L165.017 212.344L164.988 212.347L164.96 212.35L164.938 212.351C164.923 212.353 164.923 212.353 164.91 212.369C164.507 212.533 164.075 212.616 163.64 212.614C162.765 212.644 161.887 212.431 161.317 212.131C161.002 211.959 160.763 211.751 160.684 211.538C160.605 211.323 160.756 211.041 161.079 210.751C161.88 210.008 163.727 209.139 165.665 208.864C166.798 208.675 167.975 208.717 168.978 209.095C172.368 210.384 172.137 212.69 172.137 212.69L179.419 218.749L179.614 218.91L179.746 219.012L179.749 219.026L183.499 222.141L183.5 222.155C183.515 222.258 183.63 222.982 183.805 224.185C183.914 224.963 184.061 225.933 184.206 227.088C184.296 227.722 184.381 228.411 184.47 229.139Z" fill="#FFCA93"/>
<path d="M284.655 165.492C284.267 164.727 283.782 164.015 283.21 163.372C283.031 163.529 282.841 163.688 282.655 163.846C282.541 163.956 282.417 164.051 282.301 164.152C282.287 164.16 282.275 164.17 282.264 164.182C282.229 164.218 282.19 164.249 282.147 164.276C282.12 164.303 282.092 164.332 282.06 164.349C282.011 164.388 281.963 164.428 281.917 164.471C281.795 164.575 281.664 164.678 281.539 164.78C281.424 164.875 281.308 164.97 281.191 165.063C281.145 165.093 281.103 165.13 281.06 165.166L280.622 165.509C280.605 165.521 280.589 165.533 280.573 165.546L280.566 165.555C280.403 165.679 280.251 165.792 280.097 165.917C279.989 165.993 279.878 166.078 279.774 166.155C279.65 166.249 279.527 166.336 279.41 166.431C279.292 166.517 279.173 166.604 279.05 166.689C278.803 166.873 278.551 167.055 278.31 167.228L277.979 167.46C277.86 167.544 277.739 167.625 277.616 167.703C277.434 167.84 277.24 167.966 277.054 168.085C276.873 168.219 276.687 168.337 276.495 168.457C276.324 168.574 276.146 168.692 275.974 168.799C275.937 168.821 275.9 168.841 275.863 168.871C275.513 169.088 275.158 169.309 274.807 169.52C274.439 169.751 274.067 169.975 273.691 170.192C273.525 170.284 273.355 170.385 273.197 170.477C273.145 170.499 273.098 170.528 273.055 170.549C272.975 170.601 272.893 170.648 272.808 170.692C272.772 170.712 272.734 170.733 272.703 170.754C272.562 170.827 272.419 170.908 272.275 170.99C272.132 171.064 271.991 171.145 271.847 171.219C271.564 171.374 271.278 171.529 270.991 171.676C270.773 171.792 270.554 171.898 270.338 172.013C270.233 172.065 270.125 172.111 270.027 172.163C269.848 172.257 269.656 172.344 269.477 172.43L269.033 172.654C268.879 172.721 268.731 172.795 268.577 172.87L268.561 172.871C268.373 172.959 268.176 173.055 267.98 173.144C267.396 173.411 266.808 173.67 266.217 173.921L266.102 173.968L265.715 174.136C265.585 174.191 265.458 174.239 265.326 174.295C264.84 174.499 264.35 174.697 263.862 174.884C263.708 174.943 263.547 175.005 263.397 175.071L263.388 175.072C263.029 175.205 262.67 175.344 262.309 175.477C262.127 175.548 261.936 175.619 261.751 175.682C261.604 175.733 261.451 175.791 261.305 175.841L261.296 175.842C258.206 176.954 255.161 177.878 252.211 178.765C252.111 178.801 252.011 178.831 251.918 178.857L251.909 178.859C249.068 179.718 246.319 180.539 243.675 181.469C243.117 181.666 242.556 181.871 242.005 182.084C241.675 182.206 241.354 182.334 241.041 182.451C240.837 182.541 240.624 182.632 240.403 182.722C240.373 182.732 240.345 182.746 240.32 182.764C240.249 182.79 240.181 182.821 240.114 182.855C239.842 182.976 239.566 183.106 239.303 183.226C239.158 183.3 239.023 183.365 238.887 183.43L238.811 183.463L238.804 183.465C238.696 183.517 238.585 183.579 238.487 183.624C238.266 183.715 238.047 183.814 237.842 183.912C237.8 183.926 237.76 183.944 237.722 183.966C237.601 184.02 237.481 184.084 237.358 184.139C237.269 184.19 237.17 184.234 237.08 184.285C237.006 184.326 236.923 184.375 236.84 184.419C236.772 184.45 236.705 184.491 236.639 184.531C236.526 184.601 236.417 184.662 236.312 184.731C236.215 184.782 236.125 184.841 236.035 184.899C235.949 184.957 235.863 185.016 235.778 185.076C235.736 185.103 235.695 185.131 235.655 185.162C235.572 185.212 235.5 185.268 235.425 185.325L235.145 185.529C235.052 185.605 234.972 185.67 234.877 185.745C234.846 185.761 234.819 185.784 234.797 185.811C234.782 185.821 234.768 185.838 234.754 185.848C234.69 185.893 234.629 185.943 234.573 185.998C234.55 186.008 234.53 186.025 234.514 186.045C234.413 186.121 234.317 186.206 234.233 186.287L234.175 186.333C234.082 186.425 233.98 186.509 233.888 186.599C233.571 186.886 233.266 187.186 232.957 187.479C232.85 187.588 232.744 187.688 232.638 187.798C232.473 187.953 232.318 188.115 232.152 188.272C232.053 188.364 231.962 188.461 231.86 188.554C231.76 188.646 231.66 188.737 231.558 188.838C231.394 188.987 231.219 189.135 231.047 189.293C230.866 189.443 230.684 189.601 230.495 189.751C230.313 189.903 230.126 190.048 229.934 190.187C229.505 190.504 229.065 190.806 228.615 191.092C228.599 191.101 228.593 191.11 228.577 191.12C226.555 192.798 224.639 194.491 224.148 195.546C224.265 195.707 224.398 195.874 224.548 196.037C225.232 196.809 226.256 197.65 227.79 198.29C230.538 199.445 234.885 199.987 241.748 198.513C242.905 198.264 244.054 197.981 245.195 197.665C245.682 197.525 246.185 197.382 246.696 197.229C246.841 197.181 246.986 197.128 247.143 197.087C247.303 197.034 247.46 196.99 247.623 196.938C247.866 196.859 248.107 196.781 248.353 196.696C248.547 196.64 248.747 196.574 248.938 196.503C249.076 196.455 249.215 196.413 249.36 196.363C249.56 196.29 249.769 196.224 249.976 196.152C250.198 196.076 250.42 195.993 250.644 195.915C250.713 195.891 250.775 195.867 250.844 195.844C253.91 194.734 257.317 193.32 261.094 191.55C265.826 189.605 269.852 187.524 273.18 185.39C273.578 185.133 273.973 184.876 274.358 184.622L274.534 184.504C274.534 184.497 274.549 184.494 274.547 184.487C274.741 184.359 274.918 184.235 275.101 184.109C275.114 184.098 275.125 184.098 275.139 184.087C275.315 183.963 275.484 183.838 275.651 183.713C275.747 183.646 275.836 183.588 275.925 183.521L276.194 183.319C276.37 183.186 276.546 183.053 276.713 182.921C276.918 182.767 277.107 182.617 277.302 182.465C277.684 182.161 278.059 181.849 278.427 181.529C283.469 177.193 285.819 172.79 285.585 168.897C285.513 167.711 285.196 166.552 284.655 165.492ZM238.303 416.477C238.303 416.477 236.313 420.162 235.01 421.621C233.707 423.085 222.033 427.704 222.005 432.044C221.978 436.754 237.1 433.438 240.403 433.268C243.701 433.095 243.952 430.581 245.343 427.916C246.727 425.252 248.131 425.701 248.391 423.553C248.65 421.402 247.044 416.477 247.044 416.477H238.303ZM288.547 416.046C288.547 416.046 292.612 420.544 296.74 421.487C300.872 422.427 307.045 423.848 307.079 426.429C307.109 429.011 291.91 430.49 287.183 427.888C280.132 424.006 279.417 425.176 278.634 423.239C277.852 421.297 279.572 416.109 279.524 415.492C279.459 414.73 288.547 416.046 288.547 416.046Z" fill="#595BD4"/>
<path d="M288.09 413.898C288.09 413.898 288.629 416.006 288.547 416.046C288.464 416.095 279.243 417.181 279.523 415.493C279.748 414.121 280.072 412.631 280.072 412.631L288.09 413.898ZM246.931 415.06C246.931 415.06 247.32 417.067 247.242 417.116C247.168 417.164 237.892 418.806 237.944 417.135C237.982 415.811 238.798 414.267 238.798 414.267L246.931 415.06Z" fill="#595BD4"/>
<path d="M259.701 210.893C256.867 211.272 252.154 210.885 248.931 208.601C248.931 208.601 248.922 208.167 248.858 207.3C248.714 205.346 248.287 201.183 247.052 194.77C246.581 192.295 261.578 201.295 261.578 201.295C261.578 201.295 261.532 202.162 261.508 203.335C261.493 203.949 261.474 204.651 261.483 205.36C261.483 205.605 261.493 205.85 261.493 206.101C261.508 206.755 261.537 207.379 261.586 207.913C261.61 208.087 261.657 208.316 261.721 208.553C261.841 209.025 262.016 209.521 262.09 209.696C262.31 210.207 261.308 210.672 259.701 210.893ZM349.037 224.746C349.037 224.746 358.919 225.887 359.475 226.512C360.03 227.139 359.897 227.672 358.969 227.601C358.036 227.533 349.369 226.774 349.369 226.774C349.369 226.774 360.697 230.083 361.271 230.492C361.609 230.731 361.418 231.768 360.908 231.777C360.406 231.787 348.945 229.153 348.945 229.153C348.945 229.153 359.51 232.264 359.882 232.754C360.205 233.183 359.785 234.107 358.981 233.931C358.177 233.754 348.165 231.426 348.165 231.426C348.165 231.426 355.68 234.18 355.731 234.795C355.762 235.167 355.636 236.069 353.722 235.297C351.812 234.526 347.075 233.186 347.075 233.186L349.037 224.746Z" fill="#F1C99E"/>
<path d="M337.357 225.206C337.357 225.206 340.645 225.375 341.65 223.728C342.506 222.327 344.596 221.057 345.239 220.666C346.096 220.14 348.192 217.6 348.799 218.619C349.406 219.641 345.535 222.96 344.854 223.805C344.171 224.65 348.913 224.344 349.778 224.958C350.646 225.575 350.172 233.344 346.919 233.184C343.665 233.024 340.446 230.722 339.859 230.809C339.277 230.895 337.484 230.786 337.484 230.786L337.357 225.206ZM269.479 178.52C269.479 178.52 272.776 184.571 271.143 185.513C269.793 186.29 272.726 192.224 273.109 193.195C273.494 194.168 270.663 194.869 270.061 195.496C269.464 196.117 267.681 203.801 265.351 204.034C263.024 204.266 252.526 200.652 249.67 197.708C246.81 194.764 244.465 181.475 246.375 175.872C248.28 170.264 263.665 167.953 269.479 178.52Z" fill="#F1C99E"/>
<path d="M270.719 181.161C270.719 181.161 274.27 171.13 268.448 169.182C261.031 166.699 250.014 172.112 248.741 172.436C247.473 172.759 240.269 173.249 243.905 185.776C247.028 196.532 247.466 196.985 247.466 196.985C247.466 196.985 249.798 190.755 251.118 189.805C253.183 188.322 257.708 188.678 257.708 188.678C257.708 188.678 255.551 183.012 258.92 182.209C262.287 181.407 262.7 186.21 270.719 181.161Z" fill="#0B0D70"/>
<path d="M254.118 185.434C253.822 184.655 252.863 181.314 249.964 183.277C247.069 185.238 251.769 191.536 252.274 191.616C252.78 191.698 256.618 191.973 254.118 185.434Z" fill="#EEBB86"/>
<path d="M261.485 205.359C261.485 205.606 261.488 205.852 261.494 206.099C252.911 203.246 251.252 198.954 251.252 198.954C253.925 200.827 261.506 203.331 261.506 203.331C261.485 204.006 261.478 204.682 261.485 205.359Z" fill="#A78460"/>
<path d="M167.786 264.057C168.486 266.381 168.272 269.92 167.931 273.71C163.832 274.144 163.074 272.459 163.074 272.459C164.045 271.174 165.398 266.682 166.83 260.779C167.143 261.89 167.471 262.986 167.786 264.057Z" fill="#595BD4"/>
<path d="M335.239 236.009C328.842 255.484 332.216 280.151 331.181 284.246C329.906 289.292 331.261 290.876 331.261 290.876C325.322 292.201 321.31 290.183 317.369 286.824C317.02 286.533 316.68 286.231 316.352 285.917C311.169 281.048 307.548 274.01 304.801 269.881C303.273 267.589 300.447 264.846 297.279 262.15C296.537 261.519 295.786 260.899 295.026 260.29C288.428 254.978 281.288 250.312 281.288 250.312L282.401 263.229C282.401 263.229 288.023 300.308 291.589 346.386C292.535 368.539 293.755 388.509 294.301 400.4C294.311 400.44 294.311 400.48 294.311 400.519C294.382 404.263 294.422 407.997 294.431 411.71C294.404 411.767 294.369 411.82 294.327 411.867C294.327 413.312 294.318 414.705 294.301 414.705C289.839 413.467 283.334 414.254 283.143 414.264C283.126 414.269 283.11 414.286 283.094 414.301C281.621 415.254 263.831 415.98 258.617 416.076C254.01 416.155 245.182 414.987 242.356 414.633C241.949 414.578 241.662 414.546 241.535 414.53C240.9 414.466 237.222 414.624 233.822 414.695H233.584C231.618 414.726 229.772 414.726 228.688 414.632C225.727 414.363 224.604 407.178 224.604 407.178C224.096 408.673 221.71 413.143 221.064 414.342C220.959 414.53 220.906 414.632 220.906 414.632C216.971 414.498 214.121 414.189 213.406 413.598C212.746 413.037 213.374 406.639 214.686 397.348V397.339C214.717 391.547 218.235 349.062 221.333 312.597C223.203 290.541 224.924 270.68 225.623 262.468L222.717 248.526C222.717 248.526 220.743 249.788 217.989 251.545C217.123 252.097 216.175 252.695 215.198 253.327C213.17 254.624 211.145 255.924 209.122 257.228C208.031 257.929 206.375 258.813 204.329 259.804C195.717 263.989 180.379 270.128 173.245 272.438C171.534 267.275 173.177 258.7 171.192 256.282C170.326 255.226 169.72 252.845 169.281 249.765C170.343 244.64 171.323 239.498 172.219 234.342C173.087 229.354 173.772 224.933 174.121 221.899C174.225 220.96 174.304 220.157 174.352 219.503C174.447 218.123 174.432 216.901 174.337 215.838C174.004 212.047 172.673 210.124 171.756 209.235C171.232 208.721 170.842 208.549 170.842 208.549C170.842 208.549 171.359 208.155 172.297 208.068C173.826 207.926 176.501 208.556 179.98 212.867C182.614 216.13 187.071 220.512 191.228 224.343C195.326 228.125 199.132 231.356 200.581 232.427C200.802 232.6 200.978 232.712 201.073 232.767C210.513 227.021 220.369 219.78 228.281 214.971C231.018 213.308 233.519 211.937 235.699 211.014C238.134 209.992 247.687 207.184 247.687 207.184L248.856 207.295C248.92 208.162 248.929 208.595 248.929 208.595C252.152 210.88 256.864 211.267 259.699 210.887C261.307 210.667 262.309 210.202 262.088 209.69C261.942 209.317 261.818 208.935 261.719 208.547L262.818 208.649L263 208.665C269.678 209.951 276.199 213.914 283.06 218.06C296.425 226.129 305.292 237.304 307.908 237.479C310.406 235.979 312.928 234.517 315.471 233.095C316.814 232.347 318.167 231.617 319.53 230.905C338.023 221.188 341.374 223.695 341.374 223.695C338.703 227.317 336.713 231.525 335.239 236.009Z" fill="#045757"/>
<path d="M283.151 414.298C283.133 414.298 283.11 414.298 283.094 414.305C283.11 414.289 283.125 414.271 283.143 414.267C283.142 414.273 283.151 414.289 283.151 414.298Z" fill="url(#paint0_linear_30_393)"/>
<path d="M162.652 222.758C162.652 222.758 167.502 282.183 172.497 292.423C172.175 292.423 174.566 295.048 174.566 295.048L184.448 345.324C184.448 345.324 188.164 347.57 190.019 343.363C189.751 343.626 180.934 294.513 179.87 292.15C178.805 289.786 176.535 288.867 175.538 283.287C174.545 277.709 167.271 224.315 167.07 222.248C166.867 220.18 162.652 222.758 162.652 222.758Z" fill="#0B0D70"/>
<path d="M283.211 163.373C282.634 164.018 282.042 164.651 281.436 165.271C281.282 165.417 281.128 165.572 280.977 165.727C280.792 165.907 280.6 166.091 280.408 166.275L280.378 166.31C280.2 166.476 280.02 166.641 279.85 166.808C278.735 167.841 277.573 168.824 276.368 169.754C275.884 170.118 275.395 170.477 274.902 170.83C274.643 171.012 274.381 171.197 274.119 171.373C273.846 171.549 273.574 171.735 273.293 171.921C273.003 172.11 272.713 172.288 272.423 172.468C272.291 172.548 272.14 172.646 272.007 172.727C271.857 172.81 271.724 172.897 271.574 172.98C271.291 173.15 271.007 173.314 270.73 173.476L269.874 173.939C269.831 173.969 269.791 173.982 269.757 174.011C267.712 175.095 265.603 176.058 263.443 176.895C263.159 177.001 262.869 177.118 262.57 177.228C255.076 180.029 247.723 181.335 241.321 183.834C240.747 184.056 240.202 184.3 239.674 184.564C239.46 184.663 239.258 184.768 239.055 184.881C238.67 185.041 238.29 185.217 237.918 185.406C234.42 187.221 227.028 193.068 224.143 195.551C224.635 194.495 226.552 192.802 228.573 191.124C228.588 191.115 228.595 191.107 228.61 191.096C230.061 189.897 231.562 188.715 232.633 187.802C232.871 187.597 233.085 187.403 233.273 187.23C233.796 186.75 234.284 186.292 234.75 185.851C234.763 185.841 234.777 185.825 234.793 185.815C238.112 182.68 239.932 180.726 240.117 179.972C240.457 178.612 237.181 173.288 237.027 173.044C237.001 173.079 236.811 173.414 236.499 173.914C235.436 175.643 233.052 179.456 231.76 180.825C230.226 182.432 230.432 181.867 229.67 182.632C229.586 182.712 229.475 182.759 229.359 182.765C224.111 177.268 232.409 158.747 237.609 154.008C237.819 153.823 238.016 153.663 238.216 153.535C248.801 147.174 256.087 157.053 261.396 163.543C262.799 165.257 264.051 166.729 265.202 167.617C270.719 171.87 283.211 163.373 283.211 163.373Z" fill="#045757"/>
<path d="M166.42 217.711C166.703 218.638 166.916 220.23 167.074 222.241C166.173 222.732 165.148 223.046 164.053 222.994C163.4 223.553 163.292 224.113 162.516 223.955C162.338 222.836 161.367 221.559 161.191 220.458V220.405C161.12 220.108 161.084 219.809 161.033 219.53C160.891 218.743 160.767 217.991 160.626 217.221C160.626 217.151 160.608 217.081 160.591 217.012C160.432 216.049 160.255 215.105 160.096 214.178C160.078 213.986 160.025 213.792 160.009 213.617C159.921 213.215 159.867 212.812 159.796 212.428L159.584 211.239C159.266 209.508 158.967 207.915 158.718 206.482C158.63 206.01 158.542 205.555 158.471 205.135C158.4 204.82 158.347 204.523 158.293 204.243C158.17 203.561 158.064 202.948 157.958 202.406C155.291 201.864 151.298 200.499 149.267 197.194C149.267 197.194 149.285 197.194 149.301 197.212H149.32C150.026 197.422 158.541 199.468 159.036 199.59H159.054V199.572L158.206 190.617L161.775 198.89L161.793 198.874C162.163 198.507 168.1 192.543 168.612 191.266C168.612 191.266 168.612 191.301 168.63 191.387V191.44C168.701 192.454 168.771 197.771 163.364 201.356C163.417 201.688 163.471 202.038 163.525 202.406C163.594 202.948 163.684 203.543 163.789 204.173C163.86 204.715 163.948 205.274 164.036 205.851C164.214 206.884 164.389 207.95 164.566 209.017C164.76 210.083 164.937 211.151 165.13 212.166L165.238 212.638C165.625 214.616 166.032 216.417 166.42 217.711Z" fill="#0B0D70"/>
<path d="M158.244 217.071C158.573 218.617 160.486 218.12 162.345 217.391C163.845 216.801 165.405 216.236 165.325 215.072C165.147 212.473 157.677 214.42 158.244 217.071Z" fill="#FFCA93"/>
<path d="M159.11 218.829C159.961 221.722 165.84 218.35 165.393 216.921C164.952 215.491 158.339 216.217 159.11 218.829Z" fill="#FFCA93"/>
<path d="M160.068 221.225C160.802 223.719 165.865 220.812 165.48 219.581C165.101 218.349 159.406 218.975 160.068 221.225ZM157.578 214.596C158.43 217.489 164.308 214.116 163.861 212.686C163.419 211.256 156.806 211.984 157.578 214.596Z" fill="#FFCA93"/>
<path d="M427.979 283.957C429.18 283.985 405.708 288.19 412.155 294.117C418.605 300.045 453.176 295.185 456.044 304.764C458.916 314.347 435.031 318.195 433.957 321.19C432.879 324.183 488.784 318.322 478.74 340.376C472.072 355.027 467.377 354.447 455.045 355.299C442.715 356.15 387.936 350.786 388.9 341.208C389.863 331.624 379.778 311.833 410.259 312.998C421.698 313.437 434.982 307.782 425.711 306.527C417.235 305.376 397.77 304.88 400.106 297.19C402.447 289.497 411.767 283.608 427.979 283.957ZM475.848 316.212C475.848 316.632 475.679 317.036 475.379 317.333C475.079 317.63 474.671 317.797 474.247 317.797C473.822 317.797 473.415 317.63 473.115 317.333C472.815 317.036 472.646 316.632 472.646 316.212C472.646 315.792 472.815 315.389 473.115 315.091C473.415 314.794 473.822 314.627 474.247 314.627C474.671 314.627 475.079 314.794 475.379 315.091C475.679 315.389 475.848 315.792 475.848 316.212ZM452.008 280.66C452.008 281.155 451.91 281.644 451.719 282.101C451.528 282.558 451.248 282.973 450.895 283.323C450.542 283.672 450.123 283.95 449.662 284.139C449.2 284.328 448.706 284.426 448.207 284.426C447.707 284.426 447.213 284.329 446.751 284.14C446.29 283.951 445.871 283.674 445.518 283.324C445.164 282.975 444.884 282.56 444.693 282.103C444.502 281.646 444.403 281.157 444.403 280.662C444.403 279.664 444.803 278.706 445.516 278C446.229 277.294 447.196 276.897 448.204 276.897C449.213 276.896 450.18 277.293 450.894 277.999C451.607 278.704 452.008 279.662 452.008 280.66Z" fill="#045757"/>
<path d="M393.058 273.384C393.058 274.042 392.794 274.674 392.324 275.14C391.854 275.606 391.216 275.867 390.551 275.867C389.886 275.868 389.248 275.606 388.777 275.141C388.307 274.675 388.043 274.044 388.042 273.385C388.042 273.059 388.107 272.736 388.233 272.435C388.359 272.134 388.544 271.86 388.777 271.629C389.009 271.399 389.286 271.216 389.59 271.091C389.894 270.966 390.22 270.902 390.55 270.902C390.879 270.901 391.205 270.966 391.51 271.09C391.814 271.215 392.09 271.398 392.323 271.628C392.556 271.859 392.741 272.133 392.867 272.434C392.993 272.735 393.058 273.058 393.058 273.384ZM415.375 262.812L419.736 260.668L419.028 255.899L423.144 264.114L420.882 268.385L420.174 263.618L415.375 262.812Z" fill="#595BD4"/>
<path d="M422.434 259.345L426.799 257.203L424.537 261.475L427.946 264.923L423.144 264.114L419.028 255.899L422.434 259.345ZM465.059 292.746L467.554 291.523L467.148 288.795L469.502 293.493L468.209 295.935L467.804 293.209L465.059 292.746ZM469.096 290.765L471.591 289.54L470.299 291.982L472.248 293.954L469.502 293.493L467.148 288.795L469.096 290.765Z" fill="#595BD4"/>
<path d="M372.407 306.865L374.899 305.641L374.492 302.913L376.849 307.612L375.555 310.053L375.15 307.325L372.407 306.865ZM376.444 304.882L378.937 303.66L377.644 306.102L379.595 308.072L376.849 307.612L374.492 302.913L376.444 304.882Z" fill="#167FFC"/>
<path d="M488.997 359.737C488.997 393.241 461.576 420.398 427.736 420.398C393.896 420.398 366.465 393.241 366.465 359.737C366.465 350.998 368.344 342.705 371.717 335.197C370.869 334.517 370.471 333.761 370.471 332.915C370.471 329.764 376.092 327.805 389.273 326.367C399.578 325.24 413.234 324.62 427.736 324.62C442.23 324.62 455.892 325.239 466.196 326.367C479.374 327.805 484.996 329.765 484.996 332.915C484.996 333.761 484.596 334.517 483.751 335.197C487.219 342.922 489.006 351.283 488.997 359.737Z" fill="#044343"/>
<path d="M387.299 405.293L383.278 424.311C383.278 424.311 385.281 426.819 390.692 425.409L397.821 412.677C394.063 410.586 390.536 408.112 387.299 405.293ZM468.214 405.254C464.978 408.078 461.451 410.558 457.691 412.652L464.833 425.409C470.247 426.819 472.248 424.311 472.248 424.311L468.218 405.256L468.214 405.254Z" fill="#595BD4"/>
</g>
<defs>
<linearGradient id="paint0_linear_30_393" x1="283.122" y1="414.267" x2="283.122" y2="414.305" gradientUnits="userSpaceOnUse">
<stop stop-color="#000127"/>
<stop offset="1" stop-color="#000274"/>
</linearGradient>
<clipPath id="clip0_30_393">
<rect width="36" height="36" fill="white" transform="translate(293.973 387)"/>
</clipPath>
<clipPath id="clip1_30_393">
<rect width="70.3259" height="70.3259" fill="white" transform="translate(108.702 273) rotate(45)"/>
</clipPath>
<clipPath id="clip2_30_393">
<rect width="553" height="461" fill="white" transform="translate(41.7163)"/>
</clipPath>
</defs>
</svg>
