<svg width="359" height="357" viewBox="0 0 359 357" fill="none" xmlns="http://www.w3.org/2000/svg">
<path d="M337.5 178C337.5 180.278 336.403 182.552 334.208 184.806C332.012 187.061 328.746 189.26 324.497 191.37C316 195.59 303.672 199.404 288.398 202.613C257.858 209.028 215.644 213 169 213C122.356 213 80.1418 209.028 49.6017 202.613C34.3276 199.404 22.0001 195.59 13.5033 191.37C9.25393 189.26 5.98843 187.061 3.79163 184.806C1.5966 182.552 0.5 180.278 0.5 178C0.5 175.722 1.5966 173.448 3.79163 171.194C5.98843 168.939 9.25393 166.74 13.5033 164.63C22.0001 160.41 34.3276 156.596 49.6017 153.387C80.1418 146.972 122.356 143 169 143C215.644 143 257.858 146.972 288.398 153.387C303.672 156.596 316 160.41 324.497 164.63C328.746 166.74 332.012 168.939 334.208 171.194C336.403 173.448 337.5 175.722 337.5 178Z" stroke="#E4E4E4"/>
<path d="M337.5 203C337.5 205.278 336.403 207.552 334.208 209.806C332.012 212.061 328.746 214.26 324.497 216.37C316 220.59 303.672 224.404 288.398 227.613C257.858 234.028 215.644 238 169 238C122.356 238 80.1418 234.028 49.6017 227.613C34.3276 224.404 22.0001 220.59 13.5033 216.37C9.25393 214.26 5.98843 212.061 3.79163 209.806C1.5966 207.552 0.5 205.278 0.5 203C0.5 200.722 1.5966 198.448 3.79163 196.194C5.98843 193.939 9.25393 191.74 13.5033 189.63C22.0001 185.41 34.3276 181.596 49.6017 178.387C80.1418 171.972 122.356 168 169 168C215.644 168 257.858 171.972 288.398 178.387C303.672 181.596 316 185.41 324.497 189.63C328.746 191.74 332.012 193.939 334.208 196.194C336.403 198.448 337.5 200.722 337.5 203Z" stroke="#E4E4E4"/>
<path d="M337.5 228C337.5 230.278 336.403 232.552 334.208 234.806C332.012 237.061 328.746 239.26 324.497 241.37C316 245.59 303.672 249.404 288.398 252.613C257.858 259.028 215.644 263 169 263C122.356 263 80.1418 259.028 49.6017 252.613C34.3276 249.404 22.0001 245.59 13.5033 241.37C9.25393 239.26 5.98843 237.061 3.79163 234.806C1.5966 232.552 0.5 230.278 0.5 228C0.5 225.722 1.5966 223.448 3.79163 221.194C5.98843 218.939 9.25393 216.74 13.5033 214.63C22.0001 210.41 34.3276 206.596 49.6017 203.387C80.1418 196.972 122.356 193 169 193C215.644 193 257.858 196.972 288.398 203.387C303.672 206.596 316 210.41 324.497 214.63C328.746 216.74 332.012 218.939 334.208 221.194C336.403 223.448 337.5 225.722 337.5 228Z" stroke="#E4E4E4"/>
<path d="M248.431 60.4502L248.601 61.3027L249.252 60.7273L294.716 20.5773L267.766 73.1677L267.336 74.0066L268.272 73.892L330.278 66.2965L275.353 94.0537L274.47 94.5L275.353 94.9463L330.278 122.703L268.272 115.108L267.336 114.993L267.766 115.832L294.716 168.423L249.252 128.273L248.601 127.697L248.431 128.55L237 185.94L225.569 128.55L225.399 127.697L224.748 128.273L179.284 168.423L206.234 115.832L206.664 114.993L205.728 115.108L143.722 122.703L198.647 94.9463L199.53 94.5L198.647 94.0537L143.722 66.2965L205.728 73.892L206.664 74.0066L206.234 73.1677L179.284 20.5773L224.748 60.7273L225.399 61.3027L225.569 60.4502L237 3.05958L248.431 60.4502Z" stroke="#E4E4E4"/>
<path d="M277 157.862L294.324 201.744L294.494 202.174L294.936 202.038L340.046 188.223L316.539 229.128L316.308 229.528L316.69 229.789L355.617 256.444L308.98 263.569L308.523 263.639L308.556 264.099L311.988 311.153L277.339 279.133L277 278.819L276.661 279.133L242.012 311.153L245.444 264.099L245.477 263.639L245.02 263.569L198.383 256.444L237.31 229.789L237.692 229.528L237.461 229.128L213.954 188.223L259.064 202.038L259.506 202.174L259.676 201.744L277 157.862Z" stroke="white"/>
<path d="M115.692 279.546L135.135 243.5L155.296 279.852L191.567 299.933L155.602 319.456L136 355.5L115.998 319.15L79.5674 299.067L115.692 279.546Z" stroke="#E4E4E4" stroke-miterlimit="10"/>
</svg>
